<svg width="32" height="32" viewBox="0 0 32 32" fill="none" xmlns="http://www.w3.org/2000/svg">
<g id="icons / bx-error-alt">
<path id="Vector" d="M14.6665 9.33325H17.3332V18.6666H14.6665V9.33325ZM14.6665 19.9999H17.3332V22.6666H14.6665V19.9999Z" fill="#31C7E0"/>
<path id="Vector_2" d="M28.9425 9.72408L22.2758 3.05741C22.0265 2.80675 21.6878 2.66675 21.3332 2.66675H10.6665C10.3118 2.66675 9.97317 2.80675 9.72384 3.05741L3.05717 9.72408C2.8065 9.97342 2.6665 10.3121 2.6665 10.6667V21.3334C2.6665 21.6881 2.8065 22.0267 3.05717 22.2761L9.72384 28.9427C9.97317 29.1934 10.3118 29.3334 10.6665 29.3334H21.3332C21.6878 29.3334 22.0265 29.1934 22.2758 28.9427L28.9425 22.2761C29.1932 22.0267 29.3332 21.6881 29.3332 21.3334V10.6667C29.3332 10.3121 29.1932 9.97342 28.9425 9.72408ZM26.6665 20.7814L20.7812 26.6667H11.2185L5.33317 20.7814V11.2187L11.2185 5.33341H20.7812L26.6665 11.2187V20.7814Z" fill="#31C7E0"/>
</g>
</svg>
